<?xml version="1.0" ?><svg id="Layer_1" style="enable-background:new 0 0 242.9 242.9;" version="1.1" viewBox="0 0 242.9 242.9" xml:space="preserve" xmlns="http://www.w3.org/2000/svg" xmlns:xlink="http://www.w3.org/1999/xlink"><style type="text/css">
	.st0{fill:#D92127;}
</style><path class="st0" d="M175.3,114.3c0.8,4.1,0.9,8.2,0.3,12.3c-1,7.2-3.8,13.6-8.4,19.1c-5.6,6.7-12.6,11.1-21.2,13  c-4.5,1-9,1.1-13.5,0.5c-5.8-0.8-11.1-2.7-15.9-6.1c-1.3-0.9-2.5-1.9-3.6-3c-6.5-6.4-12.9-12.8-19.4-19.2c-1.6-1.6-1.7-3.4-1-4.9  c0.8-1.8,2.6-2.7,4.6-2.5c1.1,0.1,2,0.8,2.8,1.5c5.8,5.9,11.7,11.7,17.5,17.6c4.5,4.6,10,7.3,16.3,8.1c10.3,1.3,19.1-1.8,26-9.5  c3.8-4.2,6.1-9.3,7-14.9c1.4-8.4-0.5-15.9-5.7-22.6c-4.6-5.9-10.6-9.6-18-10.9c-7.5-1.3-14.6,0.1-21,4.2c-0.2,0.1-0.5,0.2-0.7,0.1  c-2.4-1.7-4.9-3.2-7.5-4.5c0,0-0.1-0.1-0.1-0.2c2-1.7,4.3-3.2,6.6-4.4c4.4-2.3,9.1-3.7,14-4.1c12.8-1,23.6,3.3,32.2,13  C171.2,101.7,174,107.7,175.3,114.3z M242.9,42v159c0,23.2-18.8,42-42,42H42c-23.2,0-42-18.8-42-42V42C0,18.8,18.8,0,42,0h159  C224.1,0,242.9,18.8,242.9,42z M185,119.4c-0.1-1.2-0.2-2.4-0.4-3.6c-0.6-5.2-2.1-10.2-4.4-14.9c-4-8.1-9.9-14.6-17.6-19.3  c-5-3.1-10.4-5.2-16.3-6.2c-1.9-0.3-3.8-0.5-5.7-0.7c-0.2,0-0.5-0.1-0.7-0.1h-3.8c-1.2,0.1-2.5,0.2-3.7,0.4  c-5.2,0.6-10.2,2.1-15,4.4c-4.9,2.4-9.2,5.5-13,9.4c-0.2,0.2-0.5,0.3-0.8,0.2c-2.6-0.4-5.3-0.5-8-0.4c-5.4,0.3-10.6,1.6-15.5,4  c-9.4,4.7-16,12-19.8,21.8c-1.4,3.6-2.2,7.4-2.4,11.3c0,0.2-0.1,0.5-0.1,0.7v4.1c0.1,1,0.2,2.1,0.4,3.1c0.5,4.3,1.8,8.5,3.7,12.3  c4.4,8.8,11.1,15.2,20.1,19.1c4.1,1.8,8.5,2.8,13,3.1c0.2,0,0.5,0.1,0.7,0.1h44.7c1.2-0.1,2.3-0.2,3.5-0.4  c5.2-0.6,10.2-2.1,14.9-4.4c8.1-4,14.5-9.8,19.3-17.5c3.1-5,5.3-10.5,6.2-16.4c0.3-1.8,0.4-3.6,0.7-5.5c0-0.2,0.1-0.4,0.1-0.7V119.4  z M102.3,151.4c-0.5-0.5-1-0.7-1.7-0.7c-2.7,0.1-5.3,0.1-7.9-0.5c-13-2.9-20.6-17.1-15.8-29.6c3.8-9.8,14.3-15.8,24.6-14  c4.6,0.8,8.7,2.8,12,6.2c4.1,4.2,8.3,8.3,12.4,12.5c0.9,0.9,2,1.4,3.3,1.2c1.7-0.2,3-1,3.6-2.7c0.6-1.6,0.3-3.2-0.9-4.4  c-4.3-4.4-8.5-8.9-13-13.1c-8.7-8.1-19-10.6-30.4-7.1c-15.3,4.6-24.3,20.4-20.8,36c3.2,14.2,15.6,24.2,30.1,24.2c4.1,0,8.1,0,12.2,0  c0.2,0,0.4,0,0.7,0c-0.2-0.2-0.4-0.3-0.5-0.5C107.6,156.4,104.9,153.9,102.3,151.4z"/></svg>