<?xml version="1.0" ?><svg id="Layer_1" style="enable-background:new 0 0 512 512;" version="1.1" viewBox="0 0 512 512" xml:space="preserve" xmlns="http://www.w3.org/2000/svg" xmlns:xlink="http://www.w3.org/1999/xlink"><style type="text/css">
	.st0{fill:#2E2E2E;}
	.st1{fill:#5EA4D3;}
</style><g id="XMLID_4780_"><polygon class="st0" id="XMLID_4786_" points="339.7,6 339.7,112.8 448.3,112.8  "/><path class="st1" d="M327.7,6.3H81v231.3h197.7c55.6,0,100.9,45.3,100.9,100.9c0,55.6-45.3,100.9-100.9,100.9H81   V506h366.7l0.6-381.2H327.7V6.3z" id="XMLID_4785_"/><path class="st0" d="M367.6,338.6c0-49.1-39.8-88.9-88.9-88.9h-215v177.8h215   C327.8,427.5,367.6,387.7,367.6,338.6z M178.2,361c0,10.3-3.1,18.5-9.4,24.5c-6.2,6.1-14.3,9.1-24.3,9.1c-10.5,0-18.9-2.7-25-8.1   c-6.2-5.4-9.1-13.2-8.9-23.6l0.1-0.4h17.3c0,6.1,1.5,10.6,4.4,13.5c2.9,2.9,7,4.4,12.2,4.4c4.7,0,8.5-1.8,11.4-5.3   c3-3.5,4.4-8.2,4.4-14.1v-74.8h17.8V361z M264.3,386.7c-7,5.3-16.1,7.9-27.4,7.9c-10.9,0-20.3-2.9-28.4-8.7   c-8.1-5.8-12-13.9-11.7-24.5l0.1-0.4h17.2c0,6.4,2.2,11.2,6.6,14.5c4.4,3.3,9.8,4.9,16.2,4.9c6.3,0,11.2-1.3,14.7-4   c3.5-2.7,5.3-6.3,5.3-10.8c0-4.5-1.6-8.1-4.7-10.9c-3.2-2.8-8.8-5.4-16.8-7.6c-11.5-3.2-20.4-7.4-26.6-12.5   c-6.2-5.2-9.4-11.9-9.4-20.2c0-8.6,3.4-15.7,10.3-21.3c6.9-5.6,15.7-8.4,26.4-8.4c11.6,0,20.8,3.1,27.7,9.3   c6.9,6.2,10.3,13.8,10,22.9l-0.1,0.4h-17.2c0-5.6-1.9-10.1-5.6-13.4c-3.7-3.3-8.7-5-14.9-5c-6,0-10.7,1.4-13.9,4.3   c-3.3,2.8-4.9,6.5-4.9,11c0,4.1,1.8,7.5,5.4,10.2c3.6,2.7,9.5,5.2,17.8,7.6c11.2,3.1,19.8,7.4,25.6,12.8c5.9,5.4,8.8,12.3,8.8,20.7   C274.7,374.4,271.2,381.4,264.3,386.7z" id="XMLID_4781_"/></g></svg>